<?xml version="1.0" encoding="UTF-8" standalone="no"?>
<svg width="375px" height="375px" viewBox="0 0 375 375" version="1.1" xmlns="http://www.w3.org/2000/svg" xmlns:xlink="http://www.w3.org/1999/xlink" xmlns:sketch="http://www.bohemiancoding.com/sketch/ns">
    <!-- Generator: Sketch 3.3.2 (12043) - http://www.bohemiancoding.com/sketch -->
    <title>icon-placeholder</title>
    <desc>Created with Sketch.</desc>
    <defs>
        <filter x="-50%" y="-50%" width="200%" height="200%" filterUnits="objectBoundingBox" id="filter-1">
            <feOffset dx="0" dy="2" in="SourceAlpha" result="shadowOffsetOuter1"></feOffset>
            <feGaussianBlur stdDeviation="2" in="shadowOffsetOuter1" result="shadowBlurOuter1"></feGaussianBlur>
            <feColorMatrix values="0 0 0 0 0   0 0 0 0 0   0 0 0 0 0  0 0 0 0.07 0" in="shadowBlurOuter1" type="matrix" result="shadowMatrixOuter1"></feColorMatrix>
            <feMerge>
                <feMergeNode in="shadowMatrixOuter1"></feMergeNode>
                <feMergeNode in="SourceGraphic"></feMergeNode>
            </feMerge>
        </filter>
    </defs>
    <g id="Page-1" stroke="none" stroke-width="1" fill="none" fill-rule="evenodd" sketch:type="MSPage">
        <g id="Gimmie" sketch:type="MSArtboardGroup" transform="translate(-325.000000, -282.000000)" fill="#FFFFFF">
            <g id="Content-Box" sketch:type="MSLayerGroup" transform="translate(162.000000, 193.000000)">
                <rect id="Container" stroke="#BBBBBB" filter="url(#filter-1)" sketch:type="MSShapeGroup" x="0" y="0" width="700" height="482" rx="3"></rect>
                <path d="M301.999998,126 C268.75,126 258.125,126 243.125,131 C225.450001,137.25 211.25,151.450001 205,169.125 C200,184.125 200,194.75 200,227.999998 C200,227.999998 200,323.999992 200,323.999992 C200,357.25 200,367.875 205,382.875 C211.261597,400.549999 225.450001,414.75 243.125,421 C258.125,426 268.75,426 301.999998,426 L397.999992,426 C431.25,426 441.875,426 456.875,421 C474.549999,414.75 488.75,400.549999 495,382.875 C500,367.875 500,357.25 500,323.999992 L500,227.999998 C500,194.75 500,184.125 495,169.125 C488.75,151.625 474.349995,137.25 456.849995,131 C441.849995,126 431.25,126 397.999992,126 C415.499992,126 301.999998,126 301.999998,126 Z" id="icon-placeholder" stroke="#196E76" stroke-width="5" stroke-dasharray="1,8" sketch:type="MSShapeGroup"></path>
            </g>
        </g>
    </g>
</svg>