<?xml version="1.0" encoding="UTF-8" standalone="no"?>
<svg width="95px" height="31px" viewBox="0 0 95 31" version="1.1" xmlns="http://www.w3.org/2000/svg" xmlns:xlink="http://www.w3.org/1999/xlink" xmlns:sketch="http://www.bohemiancoding.com/sketch/ns">
    <!-- Generator: Sketch 3.3.2 (12043) - http://www.bohemiancoding.com/sketch -->
    <title>tuts-logo</title>
    <desc>Created with Sketch.</desc>
    <defs></defs>
    <g id="Page-1" stroke="none" stroke-width="1" fill="none" fill-rule="evenodd" sketch:type="MSPage">
        <g id="Gimmie" sketch:type="MSArtboardGroup" transform="translate(-465.000000, -694.000000)" fill="#9A9A9A">
            <g id="Footer" sketch:type="MSLayerGroup" transform="translate(358.000000, 694.000000)">
                <g id="tuts-logo" transform="translate(107.000000, 0.000000)" sketch:type="MSShapeGroup">
                    <path d="M3.96144705,30.5676974 L3.96144705,13.0034496 L0.973687365,13.0034496 L0.973687365,6.75310474 L3.96144705,6.75310474 L3.96144705,0.615694489 L10.8274035,0.615694489 L10.8274035,6.75310474 L13.8146763,6.75310474 L13.8146763,13.0034496 L10.8274035,13.0034496 L10.8274035,24.2750021 L13.1145951,24.2750021 L13.1145951,30.5676974 L3.96144705,30.5676974" id="Fill-15"></path>
                    <path d="M39.6091152,6.45713825 L39.6091152,24.0208993 L42.512164,24.0208993 L42.512164,30.2717309 L33.2304892,30.2717309 L33.2304892,27.156781 C32.4539736,28.3294509 31.496352,29.2046938 30.359572,29.7839704 C29.2213315,30.3632469 27.8771561,30.6528851 26.3231511,30.6528851 C23.6805636,30.6528851 21.6465307,29.8720788 20.2200787,28.3114397 C18.7931398,26.7508007 18.0804007,24.5086598 18.0804007,21.5845305 L18.0804007,12.7493468 L15.0921542,12.7493468 L15.0921542,6.45713825 L24.987252,6.45713825 L24.987252,19.5497609 C24.987252,21.3304277 25.2808187,22.5946134 25.8674654,23.3432918 C26.4536252,24.0919702 27.4170888,24.4653358 28.7593169,24.4653358 C30.0168341,24.4653358 31.0197321,24.0247936 31.7684977,23.1412752 C32.5172632,22.2592172 32.8911592,21.0617212 32.8911592,19.5497609 L32.8911592,12.7493468 L30.1575319,12.7493468 L30.1575319,6.45713825 L39.6091152,6.45713825" id="Fill-16"></path>
                    <path d="M44.3680122,30.566237 L44.3680122,13.0019892 L41.381713,13.0019892 L41.381713,6.75164438 L44.3680122,6.75164438 L44.3680122,0.615694489 L51.2344555,0.615694489 L51.2344555,6.75164438 L54.2222151,6.75164438 L54.2222151,13.0019892 L51.2344555,13.0019892 L51.2344555,24.2735417 L53.5221339,24.2735417 L53.5221339,30.566237 L44.3680122,30.566237" id="Fill-17"></path>
                    <path d="M55.0566652,23.0692307 L61.4771597,23.0692307 C61.5190283,23.9167269 61.7697528,24.56318 62.2283595,25.0071297 C62.6879399,25.4525398 63.3485868,25.6754882 64.2103001,25.6754882 C65.0296581,25.6754882 65.6537917,25.4948903 66.0851352,25.1351547 C66.5159918,24.7744455 66.7311767,24.2550438 66.7311767,23.5774364 C66.7311767,22.602402 65.6649891,21.8610255 63.5326137,21.3523331 C62.6986505,21.1551843 62.0418984,20.9857825 61.5618705,20.8446142 C59.3160606,20.2088704 57.6632263,19.2941977 56.6028808,18.1010828 C55.5435089,16.9065076 55.0133361,15.3648532 55.0133361,13.4712519 C55.0133361,11.2252167 55.7694044,9.41388237 57.281054,8.036762 C58.7927036,6.65964164 60.784868,5.97035127 63.2560865,5.97035127 C64.2453529,5.97035127 65.1323821,6.09107444 65.9157136,6.33154721 C66.7000187,6.57104641 67.4453764,6.95950242 68.1508129,7.49642846 L68.1508129,6.50046229 L73.1102895,6.50046229 L73.1102895,13.2585259 L66.8163744,13.2585259 C66.689795,12.4825875 66.4565969,11.9286239 66.1172668,11.5966352 C65.7779368,11.2646465 65.2769746,11.0986521 64.6129199,11.0986521 C63.9347466,11.0986521 63.3875343,11.2646465 62.971283,11.5966352 C62.5540579,11.9286239 62.345202,12.3560229 62.345202,12.8778585 C62.345202,13.5423228 62.5793738,14.0573434 63.0452832,14.4248675 C63.5107058,14.7923917 64.6416436,15.2022664 66.4351758,15.6535179 C69.4010275,16.4158263 71.4433367,17.355812 72.5582088,18.4715277 C73.6745413,19.5872435 74.232951,21.1624861 74.232951,23.1957954 C74.232951,25.5124146 73.4243037,27.3953066 71.8065221,28.8420375 C70.1892274,30.2907156 68.0948259,31.0140811 65.5238044,31.0140811 C64.4775773,31.0140811 63.528719,30.8660978 62.6733346,30.5691578 C61.818924,30.2727045 61.018553,29.8136644 60.2688137,29.1920374 L60.2688137,30.4002427 L55.0566652,30.4002427 L55.0566652,23.0692307" id="Fill-18"></path>
                    <path d="M89.1488678,14.2681221 L89.1488678,9.37786014 L81.8126203,9.37786014 L81.8126203,14.2681221 L76.9213018,14.2681221 L76.9213018,20.9925975 L81.8126203,20.9925975 L81.8126203,25.8828595 L89.1488678,25.8828595 L89.1488678,20.9925975 L94.0401863,20.9925975 L94.0401863,14.2681221 L89.1488678,14.2681221" id="Fill-19"></path>
                </g>
            </g>
        </g>
    </g>
</svg>